# xmcd
#
# Track frame offsets:
# 150
# 27135
# 39319
# 56125
# 67211
# 84593
# 100308
# 120594
# 144977
# 165044
# 190403
# 215652
# 231032
#
# Disc length: 3476 seconds
#
# Revision: 0
# Processed by: cddbd v1.5.1PL2 Copyright (c) Steve Scherf et al.
# Submitted via: plextools 2.28
#
DISCID=af0d920d
DTITLE=庄野真代 ｗｉｔｈ　浜田山〜ず - Ｔｉｍｅ　Ｔｒａｖｅｌｅｒ Ｖｏｌ．１〜時代の夜汽車〜
DYEAR=2001
DGENRE=Other
TTITLE0=庄野真代 ｗｉｔｈ　浜田山〜ず - 蘇州夜曲
TTITLE1=庄野真代 ｗｉｔｈ　浜田山〜ず - 東京ブギウギ
TTITLE2=庄野真代 ｗｉｔｈ　浜田山〜ず - 星影の小径
TTITLE3=庄野真代 ｗｉｔｈ　浜田山〜ず - 恋のバカンス
TTITLE4=庄野真代 ｗｉｔｈ　浜田山〜ず - 見上げてごらん夜の星を
TTITLE5=庄野真代 ｗｉｔｈ　浜田山〜ず - さよならはダンスの後に
TTITLE6=庄野真代 ｗｉｔｈ　浜田山〜ず - 長い髪の少女
TTITLE7=庄野真代 ｗｉｔｈ　浜田山〜ず - オリビアを聴きながら　あの日に帰りたい
TTITLE8=庄野真代 ｗｉｔｈ　浜田山〜ず - 飛んでイスタンブール
TTITLE9=庄野真代 ｗｉｔｈ　浜田山〜ず - モンテカルロで乾杯
TTITLE10=庄野真代 ｗｉｔｈ　浜田山〜ず - Feel the wind〜風を感じて〜
TTITLE11=庄野真代 ｗｉｔｈ　浜田山〜ず - 時の夜汽車
TTITLE12=庄野真代 ｗｉｔｈ　浜田山〜ず - Be yourself
EXTD=
EXTT0=
EXTT1=
EXTT2=
EXTT3=
EXTT4=
EXTT5=
EXTT6=
EXTT7=
EXTT8=
EXTT9=
EXTT10=
EXTT11=
EXTT12=
PLAYORDER=
